<?xml version="1.0" encoding="UTF-8"?><svg id="Layer_1" xmlns="http://www.w3.org/2000/svg" viewBox="0 0 100 100"><g><path d="m45.221,28.5123c-.1586-.0646-.3378-.0176-.4582.1057l-13.1494,13.4464h-8.165c-.235,0-.5316.1733-.5316.4053v15.2646c0,.235.2967.8724.5287.8724h7.88l13.4434,13.2201c.0822.0822.1909.0117.2996.0117.0558,0,.0999-.0676.1527-.0881.1586-.0646.2526-.2761.2526-.4464V28.903c0-.1704-.094-.326-.2526-.3906h-.0002Z" fill="#fff"/><path d="m51.2566,43.8295c1.636,1.6095,2.5377,3.7654,2.5377,6.0623,0,2.3439-.934,4.5291-2.6317,6.1533l2.3439,2.4525c2.3732-2.2704,3.6773-5.325,3.6773-8.6026,0-3.2162-1.2601-6.2267-3.5511-8.4793l-2.3761,2.4138Z" fill="#fff"/><path d="m61.4781,33.5847l-2.3909,2.4055c3.6744,3.6509,5.6981,8.5116,5.6981,13.6871,0,5.3339-2.1294,10.2974-5.9977,13.9811l2.338,2.4584c4.5467-4.3264,7.0521-10.1659,7.0521-16.436,0-6.0888-2.3791-11.8043-6.6997-16.0954v-.0005Z" fill="#fff"/><path d="m67.6054,27.4431l-2.3732,2.4232c5.4543,5.3456,8.459,12.4945,8.459,20.1309s-3.0047,14.7916-8.462,20.137l2.3732,2.4232c6.1151-5.9888,9.4809-13.9983,9.4809-22.5604-.0029-8.556-3.366-16.5654-9.4779-22.5544v.0004Z" fill="#fff"/></g><circle cx="50" cy="50" r="47.5" fill="none" stroke="#fff" stroke-miterlimit="10"/></svg>