<?xml version="1.0" encoding="UTF-8"?><svg id="Layer_1" xmlns="http://www.w3.org/2000/svg" viewBox="0 0 106.6313 74.0512"><circle cx="50.3474" cy="35.8631" r="31.3962" fill="#ffcc05"/><path d="m48.6327,30.1925c-1.1848-7.1296-8.5427-7.432-10.4709-6.073-.3647-12.1741-16.6397-14.1228-19.4265-5.1316-5.697-3.3094-13.6511,2.2176-10.0543,8.1229C4.7396,26.3371.1204,28.8091.1204,33.1692c0,3.4355.9522,7.0928,7.5878,7.0928h34.7309c7.1139,0,6.5404-7.9844,6.1936-10.0695Z" fill="#f1f2f2"/><path d="m56.8794,63.3796c-1.1848-7.1296-8.5427-7.432-10.4709-6.073-.3647-12.1741-16.6397-14.1228-19.4265-5.1316-5.697-3.3094-13.6511,2.2176-10.0543,8.1229-3.9413-.7737-8.5606,1.6983-8.5606,6.0584,0,3.4355.9522,7.0928,7.5878,7.0928h34.7309c7.1139,0,6.5404-7.9844,6.1936-10.0695Z" fill="#f1f2f2"/><path d="m106.063,48.3733c-1.1848-7.1296-8.5427-7.432-10.4709-6.073-.3647-12.1741-16.6397-14.1228-19.4265-5.1316-5.697-3.3094-13.6511,2.2176-10.0543,8.1229-3.9413-.7737-8.5606,1.6983-8.5606,6.0584,0,3.4355.9522,7.0928,7.5878,7.0928h34.7309c7.1139,0,6.5404-7.9844,6.1936-10.0695Z" fill="#f1f2f2"/></svg>