<?xml version="1.0" encoding="UTF-8"?><svg id="Layer_1" xmlns="http://www.w3.org/2000/svg" viewBox="0 0 74.5265 74.5266"><circle cx="37.2424" cy="37.2851" r="22.5" fill="#ffcb04"/><g id="combined"><polygon points="37.2602 0 32.9707 11.0367 41.5498 11.0367 37.2602 0" fill="#ffcb04"/><polygon points="74.5265 37.2844 63.4926 32.9878 63.487 41.5668 74.5265 37.2844" fill="#ffcb04"/><polygon points="37.2179 74.5266 41.5217 63.4954 32.9427 63.4843 37.2179 74.5266" fill="#ffcb04"/><polygon points="0 37.1938 11.0283 41.5049 11.0449 32.9258 0 37.1938" fill="#ffcb04"/><rect x="54.194" y="10.4648" width="11.1853" height="8.458" transform="translate(7.2064 46.72) rotate(-45.1532)" fill="#ffcb04"/><rect x="55.7238" y="54.0731" width="8.458" height="11.1853" transform="translate(-24.6259 60.5474) rotate(-45.4597)" fill="#ffcb04"/><rect x="9.3898" y="55.8434" width="11.1853" height="8.4581" transform="translate(-38.511 28.9016) rotate(-45.7662)" fill="#ffcb04"/><rect x="10.1062" y="9.5122" width="8.458" height="11.1853" transform="translate(-6.4886 14.9504) rotate(-46.0727)" fill="#ffcb04"/></g></svg>