<?xml version="1.0" encoding="UTF-8"?><svg id="Layer_1" xmlns="http://www.w3.org/2000/svg" xmlns:xlink="http://www.w3.org/1999/xlink" viewBox="0 0 612 792"><defs><clipPath id="clippath"><rect width="612" height="792" fill="none"/></clipPath><clipPath id="clippath-1"><rect x="26.8596" y="22.1005" width="558.9" height="680.4" fill="none"/></clipPath></defs><g clip-path="url(#clippath)"><text transform="translate(324.0557 769)" fill="#231f20" font-family="National2-Regular, &apos;National2 Regular&apos;" font-size="8"><tspan x="0" y="0">Global Bottl</tspan><tspan x="39.3516" y="0" letter-spacing=".004em">e</tspan><tspan x="43.3916" y="0">d </tspan><tspan x="49.5996" y="0" letter-spacing="-.024em">W</tspan><tspan x="56.1748" y="0" letter-spacing=".0001em">ater Indust</tspan><tspan x="92.0869" y="0" letter-spacing=".0089em">r</tspan><tspan x="94.7744" y="0" letter-spacing=".0001em">y: A Review of Impacts and </tspan><tspan x="185.125" y="0" letter-spacing="-.075em">T</tspan><tspan x="188.501" y="0" letter-spacing="-.01em">r</tspan><tspan x="191.0371" y="0">ends</tspan></text></g><text transform="translate(570.9004 769)" fill="#231f20" font-family="National2-Bold, &apos;National2 Bold&apos;" font-size="8" font-weight="700"><tspan x="0" y="0">9</tspan></text><g clip-path="url(#clippath-1)"><image width="1840" height="2240" transform="translate(26.8596 22.1005) scale(.3038)" xlink:href="icon1.png"/></g><text transform="translate(36.6035 721.7998)" fill="#231f20" font-family="National2-Bold, &apos;National2 Bold&apos;" font-size="9" font-weight="700"><tspan x="0" y="0">FIGURE </tspan><tspan x="29.3486" y="0" letter-spacing="-.091em">7</tspan><tspan x="33.1465" y="0">. </tspan></text><text transform="translate(78.7861 721.7998)" fill="#231f20" font-family="National2-Regular, &apos;National2 Regular&apos;" font-size="9"><tspan x="0" y="0" letter-spacing="-.084em">T</tspan><tspan x="3.7168" y="0">op 50 countries in 2021 </tspan><tspan x="93.1479" y="0" letter-spacing="-.005em">b</tspan><tspan x="98.2236" y="0" letter-spacing="0em">y total </tspan><tspan x="123.6392" y="0" letter-spacing=".004em">b</tspan><tspan x="128.7964" y="0">ottl</tspan><tspan x="141.8188" y="0" letter-spacing=".004em">e</tspan><tspan x="146.3638" y="0">d water consumption and com</tspan><tspan x="261.4902" y="0" letter-spacing=".004em">p</tspan><tspan x="266.6475" y="0" letter-spacing="-.0001em">osition </tspan><tspan x="294.1865" y="0" letter-spacing="-.004em">b</tspan><tspan x="299.2715" y="0">y water ty</tspan><tspan x="335.9375" y="0" letter-spacing=".005em">p</tspan><tspan x="341.1035" y="0">e. </tspan></text><text transform="translate(451.8047 721.7998)" fill="#231f20" font-family="National2-Regular, &apos;National2 Regular&apos;" font-size="9"><tspan x="0" y="0"> </tspan></text><text transform="translate(35.9219 732.5996)" fill="#231f20" font-family="National2-Regular, &apos;National2 Regular&apos;" font-size="9"><tspan x="0" y="0">(“</tspan></text><path d="m48.8736,726.5862h.7292l-1.0623,6.0138h-.6392l-2.3407-4.8254h-.018l-.8553,4.8254h-.7292l1.0623-6.0138h.7202l2.2687,4.7804h.018l.8463-4.7804Zm5.3278,3.304c0,.6212-.144,1.2244-.4141,1.7015-.3781.6752-.9903,1.1163-1.8095,1.1163-1.0893,0-1.7645-.7022-1.7645-1.8996,0-.6212.144-1.2244.4141-1.7015.3781-.6752.9903-1.1163,1.8095-1.1163,1.0893,0,1.7645.7022,1.7645,1.8996Zm-1.0713,1.4674c.2251-.3961.3331-.8913.3331-1.4224,0-.8012-.3241-1.3684-1.0263-1.3684-.5042,0-.8913.3151-1.1523.7742-.2251.3961-.3331.8913-.3331,1.4224,0,.8012.3241,1.3684,1.0263,1.3684.5042,0,.8913-.3151,1.1523-.7742Zm4.1572-.5222c0-.6302.153-1.2154.4141-1.6835.3961-.7112,1.0353-1.1613,1.8005-1.1613.6662,0,1.1523.3961,1.2784.8733l.4861-2.7638h.7292l-.9813,5.5727c-.009.054-.018.108-.018.162,0,.153.063.2881.2701.2881.081,0,.162-.009.2791-.054l-.081.4951c-.144.063-.3061.099-.4681.099-.4951,0-.7112-.2791-.7112-.7202,0-.054,0-.117.009-.1801-.3061.6392-.8282.9453-1.4224.9453-.9003,0-1.5845-.6662-1.5845-1.8726Zm3.1689-.108c.081-.3871.1801-.9273.1801-1.1163,0-.5582-.4051-1.0353-1.0533-1.0353-.5312,0-.9363.3331-1.2244.8372-.2161.3871-.3241.8913-.3241,1.4224,0,.8192.3961,1.2784,1.0443,1.2784.6662,0,1.2064-.5312,1.3774-1.3864Zm2.1681.108c0-.6302.153-1.2154.4141-1.6835.3961-.7112,1.0353-1.1613,1.8005-1.1613.6572,0,1.1253.3961,1.2514.8733l.3241-.7652h.5402l-.6302,3.5741c-.009.054-.018.108-.018.162,0,.153.063.2881.2701.2881.081,0,.162-.009.2791-.054l-.081.4951c-.144.063-.3061.099-.4681.099-.4951,0-.7112-.2791-.7112-.7202,0-.054,0-.117.009-.1801-.3061.6392-.8192.9453-1.4134.9453-.8553,0-1.5665-.6662-1.5665-1.8726Zm3.1329-.108c.081-.3871.1801-.9273.1801-1.1163,0-.5582-.3691-1.0353-1.0173-1.0353-.5312,0-.9363.3331-1.2244.8372-.2161.3871-.3241.8913-.3241,1.4224,0,.8192.4051,1.2784,1.0533,1.2784.6662,0,1.1613-.5312,1.3324-1.3864Zm4.3378,1.6745c-.2701.1981-.5852.3061-.9363.3061-.6392,0-1.0623-.3061-1.0623-.9453,0-.09.009-.1891.027-.2971l.4951-2.7998h-.6482l.099-.5672h.6482l.1711-.9543.7382-.117-.1891,1.0713h1.1703l-.099.5672h-1.1703l-.4861,2.7458c-.018.09-.027.162-.027.2341,0,.3241.1711.4591.4771.4591.2611,0,.4861-.09.7562-.2701l.036.5672Zm1.0614-1.5665c0-.6302.153-1.2154.4141-1.6835.3961-.7112,1.0353-1.1613,1.8005-1.1613.6572,0,1.1253.3961,1.2514.8733l.3241-.7652h.5402l-.6302,3.5741c-.009.054-.018.108-.018.162,0,.153.063.2881.2701.2881.081,0,.162-.009.2791-.054l-.081.4951c-.144.063-.3061.099-.4681.099-.4951,0-.7112-.2791-.7112-.7202,0-.054,0-.117.009-.1801-.3061.6392-.8192.9453-1.4134.9453-.8553,0-1.5665-.6662-1.5665-1.8726Zm3.1329-.108c.081-.3871.1801-.9273.1801-1.1163,0-.5582-.3691-1.0353-1.0173-1.0353-.5312,0-.9363.3331-1.2244.8372-.2161.3871-.3241.8913-.3241,1.4224,0,.8192.4051,1.2784,1.0533,1.2784.6662,0,1.1613-.5312,1.3324-1.3864Zm8.3793-.8372c0,.6212-.144,1.2244-.4141,1.7015-.3781.6752-.9903,1.1163-1.8095,1.1163-1.0893,0-1.7645-.7022-1.7645-1.8996,0-.6212.144-1.2244.4141-1.7015.3781-.6752.9903-1.1163,1.8095-1.1163,1.0893,0,1.7645.7022,1.7645,1.8996Zm-1.0713,1.4674c.2251-.3961.3331-.8913.3331-1.4224,0-.8012-.3241-1.3684-1.0263-1.3684-.5042,0-.8913.3151-1.1523.7742-.2251.3961-.3331.8913-.3331,1.4224,0,.8012.3241,1.3684,1.0263,1.3684.5042,0,.8913-.3151,1.1523-.7742Zm3.0595-1.1613l-.4231,2.4037h-.7382l.7922-4.5013h.5492l-.054.9093c.3061-.6122.8823-1.0173,1.5575-1.0173.7742,0,1.1613.4501,1.1613,1.1253,0,.117-.009.2521-.036.3871l-.3871,2.1696c-.009.054-.018.108-.018.162,0,.153.063.2881.2701.2881.081,0,.162-.009.2791-.054l-.081.4951c-.144.063-.3061.099-.4681.099-.4951,0-.7382-.2791-.7382-.7202,0-.081.009-.1711.027-.2701l.3871-2.1696c.018-.117.027-.1891.027-.2701,0-.3691-.1981-.6212-.6482-.6212-.6572,0-1.2604.4501-1.4584,1.5845Zm8.3613,2.2057c-.2701.1981-.5852.3061-.9363.3061-.6392,0-1.0623-.3061-1.0623-.9453,0-.09.009-.1891.027-.2971l.4951-2.7998h-.6482l.099-.5672h.6482l.1711-.9543.7382-.117-.1891,1.0713h1.1703l-.099.5672h-1.1703l-.4861,2.7458c-.018.09-.027.162-.027.2341,0,.3241.1711.4591.4771.4591.2611,0,.4861-.09.7562-.2701l.036.5672Zm1.2865-4.3033h.7382l.3961,3.7181h.018l2.1246-3.7181h.7652l-2.9619,4.9695c-.6482,1.0533-1.1433,1.4224-1.8005,1.4224-.3241,0-.6392-.117-.7742-.2791l.2161-.5762c.135.1711.3781.2611.5852.2611.4231,0,.8102-.3601,1.3054-1.2334l-.6122-4.5644Zm7.0658-.108c.9003,0,1.5845.6662,1.5845,1.8726,0,.6302-.153,1.2154-.4141,1.6835-.3961.7112-1.0353,1.1613-1.8005,1.1613-.6662,0-1.1433-.3961-1.2694-.8733l-.4501,2.5478h-.7382l1.1073-6.2839h.5492l-.054.9093c.3061-.6392.8823-1.0173,1.4854-1.0173Zm-1.5845,1.9806c-.081.3871-.1801.9273-.1801,1.1163,0,.5582.4051,1.0353,1.0533,1.0353.5312,0,.9363-.3331,1.2244-.8372.2161-.3871.3241-.8913.3241-1.4224,0-.8192-.3961-1.2784-1.0443-1.2784-.6662,0-1.2064.5312-1.3774,1.3864Zm5.8313,2.7368c-1.1073,0-1.7825-.7292-1.7825-1.8996,0-.6122.144-1.2064.4231-1.6835.3691-.6842,1.0173-1.1343,1.8456-1.1343,1.1433,0,1.6025.7832,1.6025,1.6025,0,.3151-.063.5942-.1981.8913h-2.9529c-.009.09-.009.1891-.009.2791,0,.7922.3601,1.3594,1.0713,1.3594.6302,0,.9723-.3331,1.1343-.8282l.6572.153c-.3331.9183-1.0173,1.2604-1.7915,1.2604Zm-.9723-2.7638h2.2867c.045-.108.072-.2521.072-.3691,0-.5312-.2431-1.0083-.9183-1.0083-.5222,0-.9363.3151-1.2064.7832-.099.1801-.1801.3781-.2341.5942Zm4.2119,1.2064c.054.6662.5132.9903,1.1253.9903.5402,0,.9453-.2431.9453-.7472,0-1.0533-2.1156-.6032-2.1156-2.0526,0-.8012.6392-1.3504,1.5755-1.3504.9993,0,1.5485.5042,1.5485,1.3144l-.6662.081c0-.4501-.2791-.8282-.8913-.8282-.5222,0-.8823.2881-.8823.7112,0,.9543,2.1246.5582,2.1246,2.0256,0,.8823-.7472,1.4134-1.6385,1.4134-1.0713,0-1.7465-.5852-1.8005-1.4224l.6752-.135Z" fill="#231f20"/><text transform="translate(112.2227 732.5996)" fill="#231f20" font-family="National2-Regular, &apos;National2 Regular&apos;" font-size="9"><tspan x="0" y="0">” indi</tspan><tspan x="19.3765" y="0" letter-spacing=".005em">c</tspan><tspan x="23.4536" y="0">ates </tspan><tspan x="40.7515" y="0" letter-spacing=".004em">c</tspan><tspan x="44.8193" y="0">ases whe</tspan><tspan x="78.8296" y="0" letter-spacing="-.01em">r</tspan><tspan x="81.6826" y="0">e on</tspan><tspan x="98.0356" y="0" letter-spacing="-.009em">l</tspan><tspan x="100.0786" y="0">y totals a</tspan><tspan x="133.396" y="0" letter-spacing="-.01em">r</tspan><tspan x="136.249" y="0">e </tspan><tspan x="142.6655" y="0" letter-spacing="-.009em">a</tspan><tspan x="146.9224" y="0">vailable)</tspan></text></svg>