<?xml version="1.0" encoding="UTF-8"?><svg id="Layer_1" xmlns="http://www.w3.org/2000/svg" viewBox="0 0 100 100"><path d="m45.221,28.5123c-.1586-.0646-.3378-.0176-.4582.1057l-13.1494,13.4464h-8.165c-.235,0-.5316.1733-.5316.4053v15.2646c0,.235.2967.8724.5287.8724h7.88l13.4434,13.2201c.0822.0822.1909.0117.2996.0117.0558,0,.0999-.0676.1527-.0881.1586-.0646.2526-.2761.2526-.4464V28.903c0-.1704-.094-.326-.2526-.3906h-.0002Z" fill="#fff"/><circle cx="50" cy="50" r="47.5" fill="none" stroke="#fff" stroke-miterlimit="10"/><rect x="48.944" y="49.4698" width="24.2016" height="3.3672" transform="translate(54.0505 -28.1827) rotate(45)" fill="#fff"/><rect x="48.944" y="49.4698" width="24.2016" height="3.3672" transform="translate(140.3809 44.1591) rotate(135)" fill="#fff"/></svg>