<?xml version="1.0" encoding="UTF-8"?><svg id="Layer_1" xmlns="http://www.w3.org/2000/svg" viewBox="0 0 125 125"><g id="triangles"><polygon points="61.3005 11.2986 55.5427 26.113 67.0583 26.113 61.3005 11.2986" fill="#ffcb04"/><polygon points="96.6814 25.9572 82.1325 32.3565 90.2726 40.5019 96.6814 25.9572" fill="#ffcb04"/><polygon points="111.3227 61.3452 96.512 55.5778 96.5045 67.0934 111.3227 61.3452" fill="#ffcb04"/><polygon points="96.6412 96.7165 90.2513 82.1635 82.1006 90.2983 96.6412 96.7165" fill="#ffcb04"/><polygon points="61.2437 111.3349 67.0207 96.528 55.5051 96.513 61.2437 111.3349" fill="#ffcb04"/><polygon points="25.8819 96.6305 40.439 90.25 32.3095 82.0941 25.8819 96.6305" fill="#ffcb04"/><polygon points="11.2864 61.2236 26.0896 67.0101 26.112 55.4946 11.2864 61.2236" fill="#ffcb04"/><polygon points="26.0137 25.8713 32.3848 40.4325 40.546 32.3083 26.0137 25.8713" fill="#ffcb04"/></g><g id="rectangles"><rect x="55.6987" y="11.0102" width="11.3532" height="15.0139" fill="#ffcb04"/><rect x="85.861" y="23.515" width="11.3532" height="15.0139" transform="translate(48.5149 -55.526) rotate(44.8468)" fill="#ffcb04"/><rect x="98.4274" y="53.6517" width="11.3532" height="15.0139" transform="translate(164.7049 -43.271) rotate(89.6935)" fill="#ffcb04"/><rect x="86.084" y="83.8805" width="11.3532" height="15.0139" transform="translate(221.2596 90.0844) rotate(134.5403)" fill="#ffcb04"/><rect x="56.015" y="96.6078" width="11.3532" height="15.0139" transform="translate(124.4935 207.5636) rotate(179.387)" fill="#ffcb04"/><rect x="25.7206" y="84.4264" width="11.3532" height="15.0139" transform="translate(-10.2382 179.7058) rotate(-135.7662)" fill="#ffcb04"/><rect x="12.8326" y="54.4258" width="11.3532" height="15.0139" transform="translate(-43.1185 81.4334) rotate(-90.9194)" fill="#ffcb04"/><rect x="24.8518" y="24.0668" width="11.3532" height="15.0139" transform="translate(-13.3905 31.6568) rotate(-46.0727)" fill="#ffcb04"/></g><g id="combined"><polygon points="61.3005 11.2986 55.5427 26.113 67.0583 26.113 61.3005 11.2986" fill="#ffcb04"/><polygon points="111.3227 61.3452 96.512 55.5778 96.5045 67.0934 111.3227 61.3452" fill="#ffcb04"/><polygon points="61.2437 111.3349 67.0207 96.528 55.5051 96.513 61.2437 111.3349" fill="#ffcb04"/><polygon points="11.2864 61.2236 26.0896 67.0101 26.112 55.4946 11.2864 61.2236" fill="#ffcb04"/><rect x="85.861" y="23.515" width="11.3532" height="15.0139" transform="translate(48.5149 -55.526) rotate(44.8468)" fill="#ffcb04"/><rect x="86.084" y="83.8805" width="11.3532" height="15.0139" transform="translate(221.2596 90.0844) rotate(134.5403)" fill="#ffcb04"/><rect x="25.7206" y="84.4264" width="11.3532" height="15.0139" transform="translate(-10.2382 179.7058) rotate(-135.7662)" fill="#ffcb04"/><rect x="24.8518" y="24.0668" width="11.3532" height="15.0139" transform="translate(-13.3905 31.6568) rotate(-46.0727)" fill="#ffcb04"/></g><circle id="sun" cx="61.3045" cy="61.3168" r="31.3962" fill="#ffcb04"/><g id="cloud-4" opacity=".7"><path d="m59.5899,55.6462c-1.1848-7.1296-8.5427-7.432-10.4709-6.073-.3647-12.1741-16.6397-14.1228-19.4265-5.1316-5.697-3.3094-13.6511,2.2176-10.0543,8.1229-3.9413-.7737-8.5606,1.6983-8.5606,6.0584,0,3.4355.9522,7.0928,7.5878,7.0928h34.7309c7.1139,0,6.5404-7.9844,6.1936-10.0695Z" fill="#f1f1f2"/></g><g id="cloud-3" opacity=".7"><path d="m67.8366,88.8333c-1.1848-7.1296-8.5427-7.432-10.4709-6.073-.3647-12.1741-16.6397-14.1228-19.4265-5.1316-5.697-3.3094-13.6511,2.2176-10.0543,8.1229-3.9413-.7737-8.5606,1.6983-8.5606,6.0584,0,3.4355.9522,7.0928,7.5878,7.0928h34.7309c7.1139,0,6.5404-7.9844,6.1936-10.0695Z" fill="#f1f1f2"/></g><g id="cloud-5" opacity=".7"><path d="m117.0202,73.8271c-1.1848-7.1296-8.5427-7.432-10.4709-6.073-.3647-12.1741-16.6397-14.1228-19.4265-5.1316-5.697-3.3094-13.6511,2.2176-10.0543,8.1229-3.9413-.7737-8.5606,1.6983-8.5606,6.0584,0,3.4355.9522,7.0928,7.5878,7.0928h34.7309c7.1139,0,6.5404-7.9844,6.1936-10.0695Z" fill="#f1f1f2"/></g><g id="cloud-2" opacity=".7"><path d="m113.3563,42.8385c-1.1848-7.1296-8.5427-7.432-10.4709-6.073-.3647-12.1741-16.6397-14.1228-19.4265-5.1316-5.697-3.3094-13.6511,2.2176-10.0543,8.1229-3.9413-.7737-8.5606,1.6983-8.5606,6.0584,0,3.4355.9522,7.0928,7.5878,7.0928h34.7309c7.1139,0,6.5404-7.9844,6.1936-10.0695Z" fill="#f1f1f2"/></g></svg>